<svg xmlns="http://www.w3.org/2000/svg" viewBox="0 0 464.0 61.9043" fill="none" role="img" aria-label="Saturday DOCS">
  <path fill="#f5f7f7" d="m 37.08984,33.3985 c 0,1.8164 -0.2344,3.4179 -0.7031,4.8047 -0.4492,1.3867 -1.0938,2.5879 -1.9336,3.6035 -0.8203,1.0156 -1.7969,1.8652 -2.9297,2.5488 -1.1328,0.6836 -2.3731,1.2305 -3.7207,1.6406 -1.3281,0.4102 -2.7441,0.7032 -4.2481,0.8789 -1.4843,0.1758 -2.998,0.2637 -4.541,0.2637 -2.0312,0 -3.9062,-0.1562 -5.625,-0.4687 -1.7187,-0.293 -3.3398,-0.7618 -4.8633,-1.4063 C 7.02148,44.5996 5.56641,43.75 4.16016,42.7149 2.77344,41.6797 1.38672,40.42 0,38.9356 l 5.97656,-6.0645 c 0.54688,1.3477 1.29883,2.5977 2.25588,3.75 0.957,1.1328 2.0019,2.1094 3.1347,2.9297 1.1524,0.8203 2.3438,1.4649 3.5743,1.9336 1.2304,0.4688 2.3925,0.7031 3.4863,0.7031 1.2891,0 2.5,-0.0879 3.6328,-0.2636 1.1328,-0.1953 2.1191,-0.5078 2.959,-0.9375 0.8398,-0.4297 1.4941,-0.9961 1.9629,-1.6993 0.4883,-0.7226 0.7324,-1.621 0.7324,-2.6953 0,-0.8203 -0.1855,-1.5234 -0.5566,-2.1093 -0.3711,-0.586 -0.8594,-1.084 -1.4649,-1.4942 -0.5859,-0.4297 -1.2597,-0.791 -2.0215,-1.084 -0.7617,-0.2929 -1.5429,-0.5371 -2.3437,-0.7324 -0.7813,-0.2148 -1.5528,-0.4004 -2.3145,-0.5566 -0.7617,-0.1758 -1.4355,-0.3516 -2.0215,-0.5274 -1.1523,-0.332 -2.3535,-0.6836 -3.6035,-1.0547 -1.25,-0.3906 -2.4804,-0.83 -3.6914,-1.3183 C 8.48634,27.2266 7.33398,26.67 6.24023,26.045 5.16602,25.4004 4.21875,24.6485 3.39844,23.7891 2.57812,22.9102 1.92383,21.9043 1.43555,20.7715 0.94726,19.6192 0.70312,18.3008 0.70312,16.8164 c 0,-1.7773 0.21485,-3.3496 0.64454,-4.7168 C 1.79687,10.7129 2.42187,9.5118 3.22266,8.4961 4.02344,7.4805 4.9707,6.6309 6.06445,5.9473 7.1582,5.2442 8.35934,4.6875 9.66794,4.2774 c 1.3086,-0.4297 2.6953,-0.7324 4.1602,-0.9082 1.4844,-0.1953 2.998,-0.293 4.541,-0.293 2.1094,0 4.0234,0.1953 5.7422,0.5859 1.7383,0.3907 3.3398,0.9473 4.8047,1.67 1.4648,0.7226 2.8027,1.5918 4.0136,2.6074 1.2305,0.9961 2.3829,2.1094 3.4571,3.3398 l -5.9766,6.0645 c -0.4687,-1.4063 -1.123,-2.6758 -1.9629,-3.8086 -0.8203,-1.1328 -1.7383,-2.0996 -2.7539,-2.9004 -1.0156,-0.8203 -2.0801,-1.4453 -3.1933,-1.875 -1.1133,-0.4492 -2.1875,-0.6738 -3.2227,-0.6738 -1.3477,0 -2.5879,0.0976 -3.7207,0.2929 -1.1328,0.1758 -2.1094,0.4786 -2.9297,0.9082 -0.8008,0.4102 -1.4258,0.9766 -1.875,1.6993 -0.4492,0.7031 -0.6738,1.582 -0.6738,2.6367 0,0.8398 0.166,1.5527 0.498,2.1387 0.3321,0.5859 0.7715,1.0839 1.3184,1.4941 0.5664,0.4102 1.2012,0.752 1.9043,1.0254 0.7031,0.2539 1.4258,0.4785 2.168,0.6738 0.7617,0.1953 1.5039,0.3711 2.2265,0.5274 0.7422,0.1367 1.416,0.2929 2.0215,0.4687 1.1719,0.332 2.4023,0.6836 3.6914,1.0547 1.2891,0.3711 2.5586,0.8105 3.8086,1.3184 1.25,0.4882 2.4414,1.0546 3.5742,1.6992 1.1328,0.6445 2.1289,1.416 2.9883,2.3144 0.8594,0.8789 1.543,1.9043 2.0508,3.0762 0.5078,1.1523 0.7617,2.4805 0.7617,3.9844 z m 40.3418,12.8906 h -9.9023 v -4.043 c -1.1719,1.6016 -2.5879,2.793 -4.2481,3.5742 -1.6406,0.7618 -3.4473,1.1426 -5.4199,1.1426 -2.5781,0 -4.8828,-0.459 -6.9141,-1.3769 -2.0312,-0.918 -3.75,-2.168 -5.1562,-3.75 -1.4063,-1.6016 -2.4805,-3.4766 -3.2227,-5.625 -0.7422,-2.1485 -1.1133,-4.4531 -1.1133,-6.9141 0,-2.4609 0.3711,-4.7656 1.1133,-6.914 0.7422,-2.1485 1.8164,-4.0137 3.2227,-5.5958 1.4062,-1.6015 3.125,-2.8613 5.1562,-3.7792 2.0313,-0.918 4.336,-1.377 6.9141,-1.377 1.3086,0 2.5488,0.1953 3.7207,0.5859 1.1914,0.3907 2.2754,0.9473 3.2519,1.67 0.9961,0.7031 1.8653,1.5625 2.6075,2.5781 0.7617,0.9961 1.3574,2.1094 1.7871,3.3398 l 4.3945,-7.3535 h 3.8086 z m -9.9609,-16.9922 c 0,-0.8789 -0.0489,-1.8066 -0.1465,-2.7832 -0.0781,-0.9766 -0.2246,-1.9434 -0.4395,-2.9004 -0.2148,-0.957 -0.5176,-1.8652 -0.9082,-2.7246 -0.3711,-0.8789 -0.8594,-1.6504 -1.4648,-2.3144 -0.586,-0.6836 -1.2988,-1.2207 -2.1387,-1.6114 -0.8398,-0.3906 -1.8164,-0.5859 -2.9297,-0.5859 -1.1133,0 -2.0801,0.2051 -2.9004,0.6152 -0.8203,0.3907 -1.5234,0.9278 -2.1093,1.6114 -0.586,0.664 -1.0743,1.4355 -1.4649,2.3144 -0.3711,0.8789 -0.6641,1.7969 -0.8789,2.7539 -0.2148,0.957 -0.3711,1.9238 -0.4687,2.9004 -0.0782,0.957 -0.1172,1.8652 -0.1172,2.7246 0,0.8594 0.039,1.7774 0.1172,2.7539 0.0976,0.9766 0.2539,1.9434 0.4687,2.9004 0.2148,0.957 0.5078,1.875 0.8789,2.7539 0.3906,0.8789 0.8789,1.6602 1.4649,2.3438 0.5859,0.664 1.289,1.2011 2.1093,1.6113 0.8203,0.3906 1.7871,0.5859 2.9004,0.5859 1.0156,0 1.9141,-0.205 2.6953,-0.6152 0.8008,-0.4297 1.4942,-0.9961 2.0801,-1.6992 0.6055,-0.7031 1.1133,-1.5039 1.5234,-2.4024 0.4102,-0.8984 0.7422,-1.8261 0.9961,-2.7832 0.2539,-0.957 0.4395,-1.9043 0.5567,-2.8418 0.1172,-0.957 0.1758,-1.8261 0.1758,-2.6074 z m 30.9964,16.9922 h -9.932 V 16.377 h -6.1523 v -3.9258 h 6.1523 V 0 h 9.932 v 12.4512 h 10.254 v 3.9258 h -10.254 z m 12.304,-14.4727 c 0,-1.5429 0.127,-3.1445 0.381,-4.8046 0.274,-1.6602 0.654,-3.3204 1.143,-4.9805 0.508,-1.6602 1.113,-3.3008 1.816,-4.9219 0.703,-1.6211 1.494,-3.1738 2.373,-4.6582 h 7.237 c -0.489,1.4649 -0.928,2.9981 -1.319,4.5996 -0.371,1.5821 -0.693,3.1738 -0.967,4.7754 -0.253,1.582 -0.459,3.1348 -0.615,4.6582 -0.137,1.5235 -0.205,2.9395 -0.205,4.2481 0,0.7617 0.029,1.582 0.088,2.4609 0.078,0.8594 0.205,1.7285 0.381,2.6074 0.176,0.8594 0.42,1.6895 0.732,2.4903 0.332,0.8007 0.752,1.5136 1.26,2.1386 0.508,0.6055 1.123,1.0938 1.846,1.4649 0.742,0.3515 1.611,0.5273 2.607,0.5273 0.977,0 1.846,-0.2148 2.608,-0.6445 0.781,-0.4492 1.464,-1.0254 2.05,-1.7285 0.586,-0.7227 1.084,-1.543 1.495,-2.461 0.41,-0.9179 0.742,-1.8554 0.996,-2.8125 0.273,-0.9765 0.468,-1.9238 0.586,-2.8418 0.136,-0.9375 0.205,-1.7773 0.205,-2.5195 V 12.4512 h 9.902 v 33.8379 h -3.809 l -4.541,-7.8809 c -0.566,1.3086 -1.259,2.5 -2.08,3.5743 -0.801,1.0546 -1.718,1.9628 -2.754,2.7246 -1.035,0.7617 -2.187,1.3476 -3.457,1.7578 -1.25,0.4101 -2.607,0.6152 -4.072,0.6152 -2.344,0 -4.385,-0.3808 -6.123,-1.1426 -1.738,-0.7617 -3.184,-1.8164 -4.336,-3.164 -1.152,-1.3477 -2.012,-2.9492 -2.578,-4.8047 -0.566,-1.875 -0.85,-3.9258 -0.85,-6.1524 z m 71.631,-16.3769 -5.566,9.2285 c -0.235,-0.7812 -0.537,-1.6601 -0.908,-2.6367 -0.372,-0.9766 -0.83,-1.8848 -1.377,-2.7246 -0.547,-0.8594 -1.202,-1.5723 -1.963,-2.1387 -0.762,-0.5859 -1.641,-0.8789 -2.637,-0.8789 -0.918,0 -1.719,0.2344 -2.402,0.7031 -0.664,0.4688 -1.231,1.084 -1.7,1.8457 -0.468,0.7422 -0.859,1.5918 -1.171,2.5489 -0.293,0.9375 -0.528,1.8945 -0.704,2.8711 -0.156,0.957 -0.263,1.8847 -0.322,2.7832 -0.058,0.8789 -0.088,1.6406 -0.088,2.2851 v 16.9629 h -9.931 V 12.4512 h 3.808 l 4.014,7.8809 c 0.547,-1.2696 1.172,-2.4317 1.875,-3.4864 0.703,-1.0742 1.514,-1.9921 2.432,-2.7539 0.918,-0.7812 1.953,-1.3867 3.105,-1.8164 1.172,-0.4297 2.49,-0.6445 3.955,-0.6445 0.762,0 1.611,0.0684 2.549,0.2051 0.937,0.1172 1.855,0.332 2.754,0.6445 0.898,0.293 1.728,0.6836 2.49,1.1719 0.762,0.4883 1.358,1.084 1.787,1.7871 z m 37.5,30.8496 h -3.808 l -4.395,-7.3535 c -0.43,1.2305 -1.025,2.3437 -1.787,3.3398 -0.742,0.9961 -1.611,1.8555 -2.607,2.5782 -0.977,0.7031 -2.061,1.25 -3.252,1.6406 -1.172,0.3906 -2.413,0.5859 -3.721,0.5859 -2.578,0 -4.883,-0.459 -6.914,-1.3769 -2.031,-0.918 -3.75,-2.168 -5.156,-3.75 -1.407,-1.6016 -2.481,-3.4766 -3.223,-5.625 -0.742,-2.1485 -1.113,-4.4532 -1.113,-6.9141 0,-2.4609 0.371,-4.7656 1.113,-6.9141 0.742,-2.1484 1.816,-4.0136 3.223,-5.5957 1.406,-1.582 3.125,-2.832 5.156,-3.75 2.031,-0.9179 4.336,-1.3769 6.914,-1.3769 1.973,0 3.779,0.3808 5.42,1.1426 1.66,0.7617 3.076,1.9531 4.248,3.5742 V 0 h 9.902 z m -9.961,-16.875 c 0,-0.7812 -0.058,-1.6406 -0.176,-2.5781 -0.117,-0.9375 -0.302,-1.8848 -0.556,-2.8418 -0.254,-0.9571 -0.586,-1.8848 -0.996,-2.7832 -0.41,-0.8985 -0.918,-1.6992 -1.524,-2.4024 -0.586,-0.7031 -1.279,-1.2597 -2.08,-1.6699 -0.781,-0.4297 -1.679,-0.6445 -2.695,-0.6445 -1.113,0 -2.08,0.2051 -2.9,0.6152 -0.821,0.3906 -1.524,0.9277 -2.11,1.6113 -0.586,0.6641 -1.074,1.4356 -1.465,2.3145 -0.371,0.8789 -0.664,1.7969 -0.879,2.7539 -0.214,0.957 -0.371,1.9238 -0.468,2.9004 -0.078,0.957 -0.118,1.8652 -0.118,2.7246 0,0.8594 0.04,1.7773 0.118,2.7539 0.097,0.957 0.254,1.9141 0.468,2.8711 0.215,0.957 0.508,1.8848 0.879,2.7832 0.391,0.8789 0.879,1.6602 1.465,2.3438 0.586,0.664 1.289,1.2011 2.11,1.6113 0.82,0.3906 1.787,0.5859 2.9,0.5859 1.113,0 2.09,-0.1953 2.93,-0.5859 0.839,-0.3906 1.552,-0.918 2.138,-1.5821 0.606,-0.6835 1.094,-1.455 1.465,-2.3144 0.391,-0.8789 0.693,-1.7969 0.908,-2.7539 0.215,-0.9766 0.362,-1.9531 0.44,-2.9297 0.097,-0.9766 0.146,-1.9043 0.146,-2.7832 z m 52.295,16.875 h -9.902 v -4.043 c -1.172,1.6016 -2.588,2.793 -4.248,3.5742 -1.641,0.7618 -3.447,1.1426 -5.42,1.1426 -2.578,0 -4.883,-0.459 -6.914,-1.3769 -2.031,-0.918 -3.75,-2.168 -5.156,-3.75 -1.407,-1.6016 -2.481,-3.4766 -3.223,-5.625 -0.742,-2.1485 -1.113,-4.4531 -1.113,-6.914 0,-2.4609 0.371,-4.7656 1.113,-6.914 0.742,-2.1485 1.816,-4.0137 3.223,-5.5958 1.406,-1.6015 3.125,-2.8613 5.156,-3.7792 2.031,-0.918 4.336,-1.377 6.914,-1.377 1.308,0 2.549,0.1953 3.721,0.5859 1.191,0.3907 2.275,0.9473 3.252,1.67 0.996,0.7031 1.865,1.5625 2.607,2.5781 0.762,0.9961 1.357,2.1094 1.787,3.3398 l 4.395,-7.3535 h 3.808 z m -9.961,-16.9922 c 0,-0.8789 -0.049,-1.8066 -0.146,-2.7832 -0.078,-0.9766 -0.225,-1.9434 -0.44,-2.9004 -0.215,-0.957 -0.517,-1.8652 -0.908,-2.7246 -0.371,-0.8789 -0.859,-1.6504 -1.465,-2.3144 -0.586,-0.6836 -1.299,-1.2207 -2.138,-1.6114 -0.84,-0.3906 -1.817,-0.5859 -2.93,-0.5859 -1.113,0 -2.08,0.2051 -2.9,0.6152 -0.821,0.3907 -1.524,0.9278 -2.11,1.6114 -0.586,0.664 -1.074,1.4355 -1.465,2.3144 -0.371,0.8789 -0.664,1.7969 -0.879,2.7539 -0.214,0.957 -0.371,1.9238 -0.468,2.9004 -0.078,0.957 -0.118,1.8652 -0.118,2.7246 0,0.8594 0.04,1.7774 0.118,2.7539 0.097,0.9766 0.254,1.9434 0.468,2.9004 0.215,0.957 0.508,1.875 0.879,2.7539 0.391,0.8789 0.879,1.6602 1.465,2.3438 0.586,0.664 1.289,1.2011 2.11,1.6113 0.82,0.3906 1.787,0.5859 2.9,0.5859 1.016,0 1.914,-0.205 2.695,-0.6152 0.801,-0.4297 1.494,-0.9961 2.08,-1.6992 0.606,-0.7031 1.114,-1.5039 1.524,-2.4024 0.41,-0.8984 0.742,-1.8261 0.996,-2.7832 0.254,-0.957 0.439,-1.9043 0.556,-2.8418 0.118,-0.957 0.176,-1.8261 0.176,-2.6074 z m 48.545,-16.8457 -12.305,29.7656 c -1.406,3.3985 -2.978,6.7578 -4.716,10.0782 -1.719,3.3398 -3.584,6.5429 -5.596,9.6093 l -3.867,-2.3437 c 0.488,-0.8789 1.064,-1.8945 1.728,-3.0469 0.664,-1.1523 1.319,-2.3437 1.963,-3.5742 0.645,-1.2305 1.24,-2.4512 1.787,-3.6621 0.547,-1.1914 0.967,-2.2852 1.26,-3.2813 l -14.795,-33.5449 h 9.903 l 10.048,22.8809 7.735,-22.8809 z" />
  <line x1="329.0" y1="9" x2="329.0" y2="38" stroke="#ffffff" stroke-opacity="0.25" stroke-width="2.4" stroke-linecap="round" />
  <text x="357.0" y="34" fill="#1aabb8" font-family="-apple-system, BlinkMacSystemFont, 'Segoe UI', Roboto, Helvetica, Arial, sans-serif" font-size="31" font-weight="600" letter-spacing="6.2">DOCS</text>
</svg>
