<svg xmlns="http://www.w3.org/2000/svg" viewBox="0 0 466.5 61.9043" fill="none" role="img" aria-label="Saturday DOCS">
  <path fill="#f5f7f7" d="m 37.08984,33.3985 c 0,1.8164 -0.2344,3.4179 -0.7031,4.8047 -0.4492,1.3867 -1.0938,2.5879 -1.9336,3.6035 -0.8203,1.0156 -1.7969,1.8652 -2.9297,2.5488 -1.1328,0.6836 -2.3731,1.2305 -3.7207,1.6406 -1.3281,0.4102 -2.7441,0.7032 -4.2481,0.8789 -1.4843,0.1758 -2.998,0.2637 -4.541,0.2637 -2.0312,0 -3.9062,-0.1562 -5.625,-0.4687 -1.7187,-0.293 -3.3398,-0.7618 -4.8633,-1.4063 C 7.02148,44.5996 5.56641,43.75 4.16016,42.7149 2.77344,41.6797 1.38672,40.42 0,38.9356 l 5.97656,-6.0645 c 0.54688,1.3477 1.29883,2.5977 2.25588,3.75 0.957,1.1328 2.0019,2.1094 3.1347,2.9297 1.1524,0.8203 2.3438,1.4649 3.5743,1.9336 1.2304,0.4688 2.3925,0.7031 3.4863,0.7031 1.2891,0 2.5,-0.0879 3.6328,-0.2636 1.1328,-0.1953 2.1191,-0.5078 2.959,-0.9375 0.8398,-0.4297 1.4941,-0.9961 1.9629,-1.6993 0.4883,-0.7226 0.7324,-1.621 0.7324,-2.6953 0,-0.8203 -0.1855,-1.5234 -0.5566,-2.1093 -0.3711,-0.586 -0.8594,-1.084 -1.4649,-1.4942 -0.5859,-0.4297 -1.2597,-0.791 -2.0215,-1.084 -0.7617,-0.2929 -1.5429,-0.5371 -2.3437,-0.7324 -0.7813,-0.2148 -1.5528,-0.4004 -2.3145,-0.5566 -0.7617,-0.1758 -1.4355,-0.3516 -2.0215,-0.5274 -1.1523,-0.332 -2.3535,-0.6836 -3.6035,-1.0547 -1.25,-0.3906 -2.4804,-0.83 -3.6914,-1.3183 C 8.48634,27.2266 7.33398,26.67 6.24023,26.045 5.16602,25.4004 4.21875,24.6485 3.39844,23.7891 2.57812,22.9102 1.92383,21.9043 1.43555,20.7715 0.94726,19.6192 0.70312,18.3008 0.70312,16.8164 c 0,-1.7773 0.21485,-3.3496 0.64454,-4.7168 C 1.79687,10.7129 2.42187,9.5118 3.22266,8.4961 4.02344,7.4805 4.9707,6.6309 6.06445,5.9473 7.1582,5.2442 8.35934,4.6875 9.66794,4.2774 c 1.3086,-0.4297 2.6953,-0.7324 4.1602,-0.9082 1.4844,-0.1953 2.998,-0.293 4.541,-0.293 2.1094,0 4.0234,0.1953 5.7422,0.5859 1.7383,0.3907 3.3398,0.9473 4.8047,1.67 1.4648,0.7226 2.8027,1.5918 4.0136,2.6074 1.2305,0.9961 2.3829,2.1094 3.4571,3.3398 l -5.9766,6.0645 c -0.4687,-1.4063 -1.123,-2.6758 -1.9629,-3.8086 -0.8203,-1.1328 -1.7383,-2.0996 -2.7539,-2.9004 -1.0156,-0.8203 -2.0801,-1.4453 -3.1933,-1.875 -1.1133,-0.4492 -2.1875,-0.6738 -3.2227,-0.6738 -1.3477,0 -2.5879,0.0976 -3.7207,0.2929 -1.1328,0.1758 -2.1094,0.4786 -2.9297,0.9082 -0.8008,0.4102 -1.4258,0.9766 -1.875,1.6993 -0.4492,0.7031 -0.6738,1.582 -0.6738,2.6367 0,0.8398 0.166,1.5527 0.498,2.1387 0.3321,0.5859 0.7715,1.0839 1.3184,1.4941 0.5664,0.4102 1.2012,0.752 1.9043,1.0254 0.7031,0.2539 1.4258,0.4785 2.168,0.6738 0.7617,0.1953 1.5039,0.3711 2.2265,0.5274 0.7422,0.1367 1.416,0.2929 2.0215,0.4687 1.1719,0.332 2.4023,0.6836 3.6914,1.0547 1.2891,0.3711 2.5586,0.8105 3.8086,1.3184 1.25,0.4882 2.4414,1.0546 3.5742,1.6992 1.1328,0.6445 2.1289,1.416 2.9883,2.3144 0.8594,0.8789 1.543,1.9043 2.0508,3.0762 0.5078,1.1523 0.7617,2.4805 0.7617,3.9844 z m 40.3418,12.8906 h -9.9023 v -4.043 c -1.1719,1.6016 -2.5879,2.793 -4.2481,3.5742 -1.6406,0.7618 -3.4473,1.1426 -5.4199,1.1426 -2.5781,0 -4.8828,-0.459 -6.9141,-1.3769 -2.0312,-0.918 -3.75,-2.168 -5.1562,-3.75 -1.4063,-1.6016 -2.4805,-3.4766 -3.2227,-5.625 -0.7422,-2.1485 -1.1133,-4.4531 -1.1133,-6.9141 0,-2.4609 0.3711,-4.7656 1.1133,-6.914 0.7422,-2.1485 1.8164,-4.0137 3.2227,-5.5958 1.4062,-1.6015 3.125,-2.8613 5.1562,-3.7792 2.0313,-0.918 4.336,-1.377 6.9141,-1.377 1.3086,0 2.5488,0.1953 3.7207,0.5859 1.1914,0.3907 2.2754,0.9473 3.2519,1.67 0.9961,0.7031 1.8653,1.5625 2.6075,2.5781 0.7617,0.9961 1.3574,2.1094 1.7871,3.3398 l 4.3945,-7.3535 h 3.8086 z m -9.9609,-16.9922 c 0,-0.8789 -0.0489,-1.8066 -0.1465,-2.7832 -0.0781,-0.9766 -0.2246,-1.9434 -0.4395,-2.9004 -0.2148,-0.957 -0.5176,-1.8652 -0.9082,-2.7246 -0.3711,-0.8789 -0.8594,-1.6504 -1.4648,-2.3144 -0.586,-0.6836 -1.2988,-1.2207 -2.1387,-1.6114 -0.8398,-0.3906 -1.8164,-0.5859 -2.9297,-0.5859 -1.1133,0 -2.0801,0.2051 -2.9004,0.6152 -0.8203,0.3907 -1.5234,0.9278 -2.1093,1.6114 -0.586,0.664 -1.0743,1.4355 -1.4649,2.3144 -0.3711,0.8789 -0.6641,1.7969 -0.8789,2.7539 -0.2148,0.957 -0.3711,1.9238 -0.4687,2.9004 -0.0782,0.957 -0.1172,1.8652 -0.1172,2.7246 0,0.8594 0.039,1.7774 0.1172,2.7539 0.0976,0.9766 0.2539,1.9434 0.4687,2.9004 0.2148,0.957 0.5078,1.875 0.8789,2.7539 0.3906,0.8789 0.8789,1.6602 1.4649,2.3438 0.5859,0.664 1.289,1.2011 2.1093,1.6113 0.8203,0.3906 1.7871,0.5859 2.9004,0.5859 1.0156,0 1.9141,-0.205 2.6953,-0.6152 0.8008,-0.4297 1.4942,-0.9961 2.0801,-1.6992 0.6055,-0.7031 1.1133,-1.5039 1.5234,-2.4024 0.4102,-0.8984 0.7422,-1.8261 0.9961,-2.7832 0.2539,-0.957 0.4395,-1.9043 0.5567,-2.8418 0.1172,-0.957 0.1758,-1.8261 0.1758,-2.6074 z m 30.9964,16.9922 h -9.932 V 16.377 h -6.1523 v -3.9258 h 6.1523 V 0 h 9.932 v 12.4512 h 10.254 v 3.9258 h -10.254 z m 12.304,-14.4727 c 0,-1.5429 0.127,-3.1445 0.381,-4.8046 0.274,-1.6602 0.654,-3.3204 1.143,-4.9805 0.508,-1.6602 1.113,-3.3008 1.816,-4.9219 0.703,-1.6211 1.494,-3.1738 2.373,-4.6582 h 7.237 c -0.489,1.4649 -0.928,2.9981 -1.319,4.5996 -0.371,1.5821 -0.693,3.1738 -0.967,4.7754 -0.253,1.582 -0.459,3.1348 -0.615,4.6582 -0.137,1.5235 -0.205,2.9395 -0.205,4.2481 0,0.7617 0.029,1.582 0.088,2.4609 0.078,0.8594 0.205,1.7285 0.381,2.6074 0.176,0.8594 0.42,1.6895 0.732,2.4903 0.332,0.8007 0.752,1.5136 1.26,2.1386 0.508,0.6055 1.123,1.0938 1.846,1.4649 0.742,0.3515 1.611,0.5273 2.607,0.5273 0.977,0 1.846,-0.2148 2.608,-0.6445 0.781,-0.4492 1.464,-1.0254 2.05,-1.7285 0.586,-0.7227 1.084,-1.543 1.495,-2.461 0.41,-0.9179 0.742,-1.8554 0.996,-2.8125 0.273,-0.9765 0.468,-1.9238 0.586,-2.8418 0.136,-0.9375 0.205,-1.7773 0.205,-2.5195 V 12.4512 h 9.902 v 33.8379 h -3.809 l -4.541,-7.8809 c -0.566,1.3086 -1.259,2.5 -2.08,3.5743 -0.801,1.0546 -1.718,1.9628 -2.754,2.7246 -1.035,0.7617 -2.187,1.3476 -3.457,1.7578 -1.25,0.4101 -2.607,0.6152 -4.072,0.6152 -2.344,0 -4.385,-0.3808 -6.123,-1.1426 -1.738,-0.7617 -3.184,-1.8164 -4.336,-3.164 -1.152,-1.3477 -2.012,-2.9492 -2.578,-4.8047 -0.566,-1.875 -0.85,-3.9258 -0.85,-6.1524 z m 71.631,-16.3769 -5.566,9.2285 c -0.235,-0.7812 -0.537,-1.6601 -0.908,-2.6367 -0.372,-0.9766 -0.83,-1.8848 -1.377,-2.7246 -0.547,-0.8594 -1.202,-1.5723 -1.963,-2.1387 -0.762,-0.5859 -1.641,-0.8789 -2.637,-0.8789 -0.918,0 -1.719,0.2344 -2.402,0.7031 -0.664,0.4688 -1.231,1.084 -1.7,1.8457 -0.468,0.7422 -0.859,1.5918 -1.171,2.5489 -0.293,0.9375 -0.528,1.8945 -0.704,2.8711 -0.156,0.957 -0.263,1.8847 -0.322,2.7832 -0.058,0.8789 -0.088,1.6406 -0.088,2.2851 v 16.9629 h -9.931 V 12.4512 h 3.808 l 4.014,7.8809 c 0.547,-1.2696 1.172,-2.4317 1.875,-3.4864 0.703,-1.0742 1.514,-1.9921 2.432,-2.7539 0.918,-0.7812 1.953,-1.3867 3.105,-1.8164 1.172,-0.4297 2.49,-0.6445 3.955,-0.6445 0.762,0 1.611,0.0684 2.549,0.2051 0.937,0.1172 1.855,0.332 2.754,0.6445 0.898,0.293 1.728,0.6836 2.49,1.1719 0.762,0.4883 1.358,1.084 1.787,1.7871 z m 37.5,30.8496 h -3.808 l -4.395,-7.3535 c -0.43,1.2305 -1.025,2.3437 -1.787,3.3398 -0.742,0.9961 -1.611,1.8555 -2.607,2.5782 -0.977,0.7031 -2.061,1.25 -3.252,1.6406 -1.172,0.3906 -2.413,0.5859 -3.721,0.5859 -2.578,0 -4.883,-0.459 -6.914,-1.3769 -2.031,-0.918 -3.75,-2.168 -5.156,-3.75 -1.407,-1.6016 -2.481,-3.4766 -3.223,-5.625 -0.742,-2.1485 -1.113,-4.4532 -1.113,-6.9141 0,-2.4609 0.371,-4.7656 1.113,-6.9141 0.742,-2.1484 1.816,-4.0136 3.223,-5.5957 1.406,-1.582 3.125,-2.832 5.156,-3.75 2.031,-0.9179 4.336,-1.3769 6.914,-1.3769 1.973,0 3.779,0.3808 5.42,1.1426 1.66,0.7617 3.076,1.9531 4.248,3.5742 V 0 h 9.902 z m -9.961,-16.875 c 0,-0.7812 -0.058,-1.6406 -0.176,-2.5781 -0.117,-0.9375 -0.302,-1.8848 -0.556,-2.8418 -0.254,-0.9571 -0.586,-1.8848 -0.996,-2.7832 -0.41,-0.8985 -0.918,-1.6992 -1.524,-2.4024 -0.586,-0.7031 -1.279,-1.2597 -2.08,-1.6699 -0.781,-0.4297 -1.679,-0.6445 -2.695,-0.6445 -1.113,0 -2.08,0.2051 -2.9,0.6152 -0.821,0.3906 -1.524,0.9277 -2.11,1.6113 -0.586,0.6641 -1.074,1.4356 -1.465,2.3145 -0.371,0.8789 -0.664,1.7969 -0.879,2.7539 -0.214,0.957 -0.371,1.9238 -0.468,2.9004 -0.078,0.957 -0.118,1.8652 -0.118,2.7246 0,0.8594 0.04,1.7773 0.118,2.7539 0.097,0.957 0.254,1.9141 0.468,2.8711 0.215,0.957 0.508,1.8848 0.879,2.7832 0.391,0.8789 0.879,1.6602 1.465,2.3438 0.586,0.664 1.289,1.2011 2.11,1.6113 0.82,0.3906 1.787,0.5859 2.9,0.5859 1.113,0 2.09,-0.1953 2.93,-0.5859 0.839,-0.3906 1.552,-0.918 2.138,-1.5821 0.606,-0.6835 1.094,-1.455 1.465,-2.3144 0.391,-0.8789 0.693,-1.7969 0.908,-2.7539 0.215,-0.9766 0.362,-1.9531 0.44,-2.9297 0.097,-0.9766 0.146,-1.9043 0.146,-2.7832 z m 52.295,16.875 h -9.902 v -4.043 c -1.172,1.6016 -2.588,2.793 -4.248,3.5742 -1.641,0.7618 -3.447,1.1426 -5.42,1.1426 -2.578,0 -4.883,-0.459 -6.914,-1.3769 -2.031,-0.918 -3.75,-2.168 -5.156,-3.75 -1.407,-1.6016 -2.481,-3.4766 -3.223,-5.625 -0.742,-2.1485 -1.113,-4.4531 -1.113,-6.914 0,-2.4609 0.371,-4.7656 1.113,-6.914 0.742,-2.1485 1.816,-4.0137 3.223,-5.5958 1.406,-1.6015 3.125,-2.8613 5.156,-3.7792 2.031,-0.918 4.336,-1.377 6.914,-1.377 1.308,0 2.549,0.1953 3.721,0.5859 1.191,0.3907 2.275,0.9473 3.252,1.67 0.996,0.7031 1.865,1.5625 2.607,2.5781 0.762,0.9961 1.357,2.1094 1.787,3.3398 l 4.395,-7.3535 h 3.808 z m -9.961,-16.9922 c 0,-0.8789 -0.049,-1.8066 -0.146,-2.7832 -0.078,-0.9766 -0.225,-1.9434 -0.44,-2.9004 -0.215,-0.957 -0.517,-1.8652 -0.908,-2.7246 -0.371,-0.8789 -0.859,-1.6504 -1.465,-2.3144 -0.586,-0.6836 -1.299,-1.2207 -2.138,-1.6114 -0.84,-0.3906 -1.817,-0.5859 -2.93,-0.5859 -1.113,0 -2.08,0.2051 -2.9,0.6152 -0.821,0.3907 -1.524,0.9278 -2.11,1.6114 -0.586,0.664 -1.074,1.4355 -1.465,2.3144 -0.371,0.8789 -0.664,1.7969 -0.879,2.7539 -0.214,0.957 -0.371,1.9238 -0.468,2.9004 -0.078,0.957 -0.118,1.8652 -0.118,2.7246 0,0.8594 0.04,1.7774 0.118,2.7539 0.097,0.9766 0.254,1.9434 0.468,2.9004 0.215,0.957 0.508,1.875 0.879,2.7539 0.391,0.8789 0.879,1.6602 1.465,2.3438 0.586,0.664 1.289,1.2011 2.11,1.6113 0.82,0.3906 1.787,0.5859 2.9,0.5859 1.016,0 1.914,-0.205 2.695,-0.6152 0.801,-0.4297 1.494,-0.9961 2.08,-1.6992 0.606,-0.7031 1.114,-1.5039 1.524,-2.4024 0.41,-0.8984 0.742,-1.8261 0.996,-2.7832 0.254,-0.957 0.439,-1.9043 0.556,-2.8418 0.118,-0.957 0.176,-1.8261 0.176,-2.6074 z m 48.545,-16.8457 -12.305,29.7656 c -1.406,3.3985 -2.978,6.7578 -4.716,10.0782 -1.719,3.3398 -3.584,6.5429 -5.596,9.6093 l -3.867,-2.3437 c 0.488,-0.8789 1.064,-1.8945 1.728,-3.0469 0.664,-1.1523 1.319,-2.3437 1.963,-3.5742 0.645,-1.2305 1.24,-2.4512 1.787,-3.6621 0.547,-1.1914 0.967,-2.2852 1.26,-3.2813 l -14.795,-33.5449 h 9.903 l 10.048,22.8809 7.735,-22.8809 z" />
  <line x1="329.0" y1="9" x2="329.0" y2="38" stroke="#ffffff" stroke-opacity="0.25" stroke-width="2.4" stroke-linecap="round" />
  <path fill="#1aabb8" d="M359.47997729492187 34.0V11.989999999999998H366.80840832519533Q372.07841967773436 11.989999999999998 374.9149253540039 14.8575Q377.75143103027347 17.725 377.75143103027347 23.026Q377.75143103027347 28.296 374.96142535400395 31.148Q372.1714196777344 34.0 366.9944083251953 34.0ZM363.510060546875 30.490744750976564H366.80840832519533Q370.23698107910155 30.490744750976564 371.91096405029293 28.640059509277343Q373.58494702148437 26.789374267578125 373.58494702148437 23.013599243164062Q373.58494702148437 19.200625732421877 371.91096405029293 17.34994049072266Q370.23698107910155 15.499255249023438 366.80840832519533 15.499255249023438H363.510060546875Z M397.0957798055013 34.496Q393.82801513671876 34.496 391.4751087036133 33.11029962158203Q389.1222022705078 31.724599243164064 387.863599243164 29.151599243164064Q386.6049962158203 26.578599243164064 386.6049962158203 23.026Q386.6049962158203 19.473400756835936 387.863599243164 16.884900756835936Q389.1222022705078 14.296400756835936 391.4720337191946 12.895200378417968Q393.8218651678814 11.494 397.09542346191404 11.494Q400.3956893903601 11.494 402.7414666434222 12.895200378417968Q405.0872438964844 14.296400756835936 406.34584692382816 16.884900756835936Q407.6044499511719 19.473400756835936 407.6044499511719 23.026Q407.6044499511719 26.578599243164064 406.34584692382816 29.151599243164064Q405.0872438964844 31.724599243164064 402.74157123819987 33.11029962158203Q400.39589857991535 34.496 397.0957798055013 34.496ZM397.09276615687776 30.986744750976563Q399.0918052978516 30.986744750976563 400.5090315949813 30.04245348747409Q401.92625789211104 29.09816222397162 402.6821119172469 27.320672786790496Q403.4379659423828 25.543183349609375 403.4379659423828 23.026Q403.4379659423828 20.508816650390624 402.68157275390627 18.715338315096766Q401.9251795654297 16.92185997980291 400.5069423370361 15.962557614413173Q399.08870510864256 15.003255249023436 397.0896659676688 15.003255249023436Q395.11764086914064 15.003255249023436 393.7004145720109 15.962557614413173Q392.2831882748811 16.92185997980291 391.52733424974525 18.715338315096766Q390.7714802246094 20.508816650390624 390.7714802246094 23.026Q390.7714802246094 25.543183349609375 391.5278734130859 27.320672786790496Q392.2842666015625 29.09816222397162 393.7025038299561 30.04245348747409Q395.1207410583496 30.986744750976563 397.09276615687776 30.986744750976563Z M426.6446143798828 34.496Q423.6500113525391 34.496 421.34980718994143 33.122700378417974Q419.0496030273438 31.74940075683594 417.75379962158206 29.182601135253908Q416.4579962158203 26.615801513671876 416.4579962158203 23.026Q416.4579962158203 19.49820227050781 417.7227977294922 16.90970227050781Q418.9875992431641 14.321202270507811 421.2940037841797 12.907601135253906Q423.6004083251953 11.494 426.6942174072266 11.494Q430.9040302734375 11.494 433.23523822021485 13.583404541015625Q435.5664461669922 15.67280908203125 436.2608469238281 19.44242724609375L432.0509621582031 19.640828002929688Q431.6479659423828 17.47083935546875 430.31497729492185 16.237047302246093Q428.9819886474609 15.003255249023436 426.6942174072266 15.003255249023436Q424.8218317871094 15.003255249023436 423.4609461669922 15.985949951171873Q422.100060546875 16.96864465332031 421.3622703857422 18.769732543945313Q420.6244802246094 20.570820434570315 420.6244802246094 23.026Q420.6244802246094 25.505981079101563 421.3746711425781 27.291568969726562Q422.1248620605469 29.077156860351565 423.4857476806641 30.031950805664064Q424.84663330078126 30.986744750976563 426.6694158935547 30.986744750976563Q429.11838940429686 30.986744750976563 430.4637750244141 29.64445458984375Q431.80916064453123 28.302164428710938 432.1625576171875 25.95237805175781L436.3848431396484 26.15077880859375Q435.95704162597656 28.73619091796875 434.71703784179687 30.602395080566406Q433.4770340576172 32.468599243164064 431.4527287597656 33.48229962158203Q429.42842346191406 34.496 426.6446143798828 34.496Z M454.5694234619141 34.496Q451.82901135253906 34.496 449.83880529785154 33.535Q447.8485992431641 32.574 446.71709735107424 30.853498107910156Q445.58559545898436 29.132996215820313 445.4119962158203 26.82659167480469L449.5040756835938 26.603389404296877Q449.6962741699219 28.02317578125 450.32866735839843 29.01516632080078Q450.961060546875 30.007156860351564 452.03054919433595 30.51555194091797Q453.1000378417969 31.023947021484375 454.6314234619141 31.023947021484375Q455.93340832519533 31.023947021484375 456.8447977294922 30.70155194091797Q457.75618713378907 30.379156860351564 458.2366814575196 29.740565185546878Q458.71717578125003 29.101973510742187 458.71717578125003 28.17198486328125Q458.71717578125003 27.322595458984374 458.31108032226564 26.668503784179688Q457.90498486328124 26.014412109375 456.75489697265624 25.471919677734377Q455.60480908203124 24.929427246093752 453.35423254394533 24.402434814453123Q450.6262211914063 23.763835571289064 448.980112487793 22.970234436035156Q447.3340037841797 22.176633300781248 446.59309924316403 20.986228759765623Q445.85219470214844 19.79582421875 445.85219470214844 18.00401513671875Q445.85219470214844 16.069610595703125 446.8038988647461 14.603307189941406Q447.75560302734374 13.137003784179687 449.5350113525391 12.315501892089843Q451.3144196777344 11.494 453.7882325439453 11.494Q456.4170454101563 11.494 458.25225146484377 12.439501892089844Q460.08745751953126 13.385003784179688 461.1414594116211 15.028007568359374Q462.19546130371094 16.67101135253906 462.431060546875 18.7976181640625L458.3637825927734 19.008419677734373Q458.2273856201172 17.79942724609375 457.65389129638675 16.891135192871094Q457.0803969726563 15.982843139648438 456.1008071899414 15.47444805908203Q455.1212174072266 14.966052978515624 453.72623254394534 14.966052978515624Q451.9778507080078 14.966052978515624 450.9672628173828 15.76274200439453Q449.95667492675784 16.559431030273437 449.95667492675784 17.855213623046875Q449.95667492675784 18.741805297851563 450.38757189941407 19.32770037841797Q450.8184688720703 19.913595458984375 451.8910586547852 20.344490539550783Q452.9636484375 20.775385620117188 454.9290264892578 21.227977294921875Q457.8864385986328 21.860374267578123 459.61934503173825 22.81207464599609Q461.35225146484373 23.763775024414063 462.0869537353516 25.040977294921873Q462.8216560058594 26.318179565429688 462.8216560058594 27.961183349609374Q462.8216560058594 29.969988647460937 461.79865411376954 31.442492431640623Q460.7756522216797 32.91499621582031 458.92184503173826 33.70549810791016Q457.06803784179687 34.496 454.5694234619141 34.496Z" />
</svg>
